<svg width="20" height="20" viewBox="0 0 20 20" fill="none" xmlns="http://www.w3.org/2000/svg">
<g clip-path="url(#clip0_2780_5549)">
<path d="M18.3337 3.33203H16.667C16.2087 3.33203 15.8337 3.70703 15.8337 4.16536V11.6654C15.8337 12.1237 16.2087 12.4987 16.667 12.4987H18.3337V3.33203ZM1.80866 9.26536C1.71699 9.4737 1.66699 9.6987 1.66699 9.93203V10.832C1.66699 11.7487 2.41699 12.4987 3.33366 12.4987H7.91699L7.15033 16.3737C7.10866 16.557 7.13366 16.757 7.21699 16.9237C7.40866 17.2987 7.65033 17.6404 7.95033 17.9404L8.33366 18.332L13.6753 12.9904C13.992 12.6737 14.167 12.2487 14.167 11.807V5.28203C14.167 4.20703 13.292 3.33203 12.217 3.33203H5.46699C4.87533 3.33203 4.33366 3.64036 4.03366 4.14036L1.80866 9.26536Z" fill="white"/>
</g>
<defs>
<clipPath id="clip0_2780_5549">
<rect width="20" height="20" fill="white"/>
</clipPath>
</defs>
</svg>
