<svg width="16" height="17" viewBox="0 0 16 17" fill="none" xmlns="http://www.w3.org/2000/svg">
                <g opacity="0.5">
                <path d="M14.0002 3.83301H2.00016C1.82335 3.83301 1.65378 3.90325 1.52876 4.02827C1.40373 4.15329 1.3335 4.32286 1.3335 4.49967C1.3335 4.67649 1.40373 4.84605 1.52876 4.97108C1.65378 5.0961 1.82335 5.16634 2.00016 5.16634H3.3335V13.1663C3.33366 13.6967 3.54442 14.2053 3.91946 14.5804C4.2945 14.9554 4.80311 15.1662 5.3335 15.1663H10.6668C11.1972 15.1662 11.7058 14.9554 12.0809 14.5804C12.4559 14.2054 12.6667 13.6967 12.6668 13.1663V5.16634H14.0002C14.177 5.16634 14.3465 5.0961 14.4716 4.97108C14.5966 4.84605 14.6668 4.67649 14.6668 4.49967C14.6668 4.32286 14.5966 4.15329 14.4716 4.02827C14.3465 3.90325 14.177 3.83301 14.0002 3.83301ZM7.3335 11.1663C7.3335 11.3432 7.26326 11.5127 7.13823 11.6377C7.01321 11.7628 6.84364 11.833 6.66683 11.833C6.49002 11.833 6.32045 11.7628 6.19543 11.6377C6.0704 11.5127 6.00016 11.3432 6.00016 11.1663V7.83301C6.00016 7.6562 6.0704 7.48663 6.19543 7.3616C6.32045 7.23658 6.49002 7.16634 6.66683 7.16634C6.84364 7.16634 7.01321 7.23658 7.13823 7.3616C7.26326 7.48663 7.3335 7.6562 7.3335 7.83301V11.1663ZM10.0002 11.1663C10.0002 11.3432 9.92993 11.5127 9.8049 11.6377C9.67988 11.7628 9.51031 11.833 9.3335 11.833C9.15669 11.833 8.98712 11.7628 8.86209 11.6377C8.73707 11.5127 8.66683 11.3432 8.66683 11.1663V7.83301C8.66683 7.6562 8.73707 7.48663 8.86209 7.3616C8.98712 7.23658 9.15669 7.16634 9.3335 7.16634C9.51031 7.16634 9.67988 7.23658 9.8049 7.3616C9.92993 7.48663 10.0002 7.6562 10.0002 7.83301V11.1663Z" fill="white"/>
                <path d="M6.66667 3.16634H9.33333C9.51014 3.16634 9.67971 3.0961 9.80474 2.97108C9.92976 2.84605 10 2.67649 10 2.49967C10 2.32286 9.92976 2.15329 9.80474 2.02827C9.67971 1.90325 9.51014 1.83301 9.33333 1.83301H6.66667C6.48986 1.83301 6.32029 1.90325 6.19526 2.02827C6.07024 2.15329 6 2.32286 6 2.49967C6 2.67649 6.07024 2.84605 6.19526 2.97108C6.32029 3.0961 6.48986 3.16634 6.66667 3.16634Z" fill="white"/>
                </g>
              </svg>