<svg width="12" height="12" viewBox="0 0 12 12" fill="none" xmlns="http://www.w3.org/2000/svg">
<path d="M6.1376 3.60156L2.21873 7.52722C2.07433 7.67215 1.98306 7.86171 1.95976 8.06514L1.80361 9.43855C1.79344 9.53513 1.80371 9.63277 1.83376 9.72511C1.86382 9.81744 1.91298 9.90238 1.97803 9.97439C2.04308 10.0464 2.12257 10.1038 2.2113 10.143C2.30002 10.1821 2.39599 10.2021 2.49294 10.2016H2.57292L3.94395 10.0451C4.14622 10.0217 4.33504 9.93181 4.48094 9.78953L8.39981 5.86006L6.1376 3.60156Z" fill="white"/>
<path d="M9.92454 3.11389L8.8865 2.07585C8.79966 1.98866 8.69646 1.91949 8.58282 1.87228C8.46918 1.82508 8.34734 1.80078 8.22429 1.80078C8.10124 1.80078 7.9794 1.82508 7.86576 1.87228C7.75213 1.91949 7.64893 1.98866 7.56209 2.07585L6.59961 3.03833L8.96206 5.40078L9.92454 4.4383C10.0117 4.35146 10.0809 4.24826 10.1281 4.13463C10.1753 4.02099 10.1996 3.89915 10.1996 3.7761C10.1996 3.65305 10.1753 3.53121 10.1281 3.41757C10.0809 3.30393 10.0117 3.20073 9.92454 3.11389Z" fill="white"/>
</svg>