<svg width="72" height="20" viewBox="0 0 72 20" fill="none" xmlns="http://www.w3.org/2000/svg">
<g id="paypal-3 1" clip-path="url(#clip0_4541_28632)">
<path id="Vector" d="M27.0514 5.18164H23.1238C22.9938 5.18156 22.868 5.2282 22.7692 5.31315C22.6703 5.3981 22.6048 5.51579 22.5846 5.645L20.9961 15.777C20.9888 15.8241 20.9917 15.8721 21.0046 15.9179C21.0176 15.9637 21.0402 16.0061 21.071 16.0422C21.1018 16.0783 21.14 16.1073 21.183 16.1272C21.226 16.147 21.2727 16.1573 21.32 16.1572H23.1951C23.3252 16.1573 23.451 16.1105 23.5499 16.0255C23.6488 15.9404 23.7142 15.8226 23.7343 15.6933L24.1627 12.9605C24.1828 12.8313 24.2482 12.7135 24.3469 12.6285C24.4457 12.5434 24.5714 12.4966 24.7014 12.4966H25.9447C28.5319 12.4966 30.025 11.2371 30.415 8.74117C30.5907 7.64922 30.4224 6.79126 29.9142 6.1904C29.356 5.5306 28.3659 5.18164 27.0514 5.18164ZM27.5045 8.88214C27.2897 10.2999 26.2129 10.2999 25.1717 10.2999H24.5791L24.9949 7.65211C25.007 7.57464 25.0463 7.50409 25.1056 7.45315C25.1648 7.4022 25.2402 7.37421 25.3182 7.37421H25.5898C26.2991 7.37421 26.9681 7.37421 27.3138 7.78095C27.52 8.0236 27.5832 8.38412 27.5045 8.88214ZM38.7915 8.8365H36.9107C36.8328 8.8365 36.7574 8.86449 36.6981 8.91544C36.6388 8.96638 36.5996 9.03693 36.5874 9.1144L36.5041 9.64362L36.3726 9.45181C35.9654 8.8573 35.0575 8.65855 34.1513 8.65855C32.0729 8.65855 30.2978 10.2422 29.9521 12.4636C29.7723 13.5718 30.0279 14.6314 30.6527 15.3703C31.2259 16.0497 32.0459 16.3328 33.0217 16.3328C34.6963 16.3328 35.6249 15.2495 35.6249 15.2495L35.541 15.7753C35.5336 15.8223 35.5363 15.8704 35.5491 15.9162C35.5619 15.9621 35.5844 16.0046 35.6151 16.0408C35.6457 16.0771 35.6839 16.1062 35.7268 16.1262C35.7697 16.1462 35.8165 16.1566 35.8638 16.1566H37.5579C37.688 16.1567 37.8139 16.11 37.9128 16.0249C38.0117 15.9398 38.0771 15.822 38.0972 15.6927L39.1137 9.21666C39.1212 9.16976 39.1184 9.12178 39.1057 9.07605C39.0929 9.03031 39.0705 8.9879 39.0398 8.95176C39.0092 8.91561 38.9711 8.88658 38.9283 8.86668C38.8854 8.84678 38.8387 8.83649 38.7915 8.8365ZM36.1699 12.5191C35.9884 13.6001 35.1356 14.3257 34.0479 14.3257C33.5018 14.3257 33.0653 14.1495 32.785 13.8156C32.5071 13.4839 32.4014 13.0119 32.4899 12.4862C32.6593 11.4144 33.5265 10.6651 34.5975 10.6651C35.1316 10.6651 35.5657 10.8436 35.8517 11.1804C36.1383 11.5207 36.252 11.9957 36.1699 12.5191ZM48.8082 8.8365H46.9182C46.8291 8.83664 46.7413 8.85866 46.6626 8.90064C46.5838 8.94263 46.5164 9.00331 46.4663 9.07742L43.8596 12.9403L42.7547 9.22822C42.7207 9.115 42.6515 9.01578 42.5572 8.94523C42.4628 8.87468 42.3484 8.83656 42.2309 8.8365H40.3737C40.3215 8.83636 40.2701 8.84875 40.2237 8.87264C40.1773 8.89653 40.1372 8.93122 40.1068 8.97384C40.0764 9.01645 40.0566 9.06575 40.049 9.11763C40.0413 9.16952 40.0461 9.22249 40.063 9.27213L42.1448 15.4183L40.1876 18.1978C40.1528 18.2471 40.1322 18.3051 40.128 18.3654C40.1237 18.4256 40.1361 18.4859 40.1637 18.5396C40.1913 18.5933 40.233 18.6384 40.2843 18.6698C40.3356 18.7012 40.3946 18.7178 40.4546 18.7178H42.3423C42.4304 18.7179 42.5173 18.6965 42.5954 18.6555C42.6735 18.6144 42.7406 18.5549 42.7908 18.4821L49.077 9.35359C49.111 9.3042 49.131 9.24637 49.1347 9.18638C49.1385 9.12638 49.1258 9.06649 49.0981 9.01322C49.0704 8.95995 49.0288 8.91532 48.9777 8.88416C48.9266 8.85301 48.868 8.83653 48.8082 8.8365Z" fill="#253B80"/>
<path id="Vector_2" d="M55.0671 5.18124H51.139C51.0091 5.1813 50.8834 5.228 50.7847 5.31294C50.6859 5.39788 50.6205 5.51549 50.6003 5.6446L49.0118 15.7766C49.0044 15.8236 49.0073 15.8716 49.0201 15.9173C49.0329 15.963 49.0554 16.0054 49.0861 16.0416C49.1168 16.0777 49.1549 16.1067 49.1978 16.1266C49.2407 16.1465 49.2874 16.1568 49.3346 16.1568H51.3503C51.4413 16.1567 51.5292 16.1239 51.5982 16.0644C51.6673 16.0048 51.713 15.9225 51.7271 15.8321L52.1779 12.9601C52.198 12.8309 52.2633 12.7131 52.3621 12.6281C52.4608 12.543 52.5865 12.4962 52.7166 12.4962H53.9593C56.547 12.4962 58.0396 11.2367 58.4301 8.74077C58.6064 7.64882 58.437 6.79086 57.9288 6.19C57.3711 5.5302 56.3816 5.18124 55.0671 5.18124ZM55.5202 8.88174C55.306 10.2995 54.2292 10.2995 53.1875 10.2995H52.5954L53.0117 7.65171C53.0237 7.57424 53.0628 7.50363 53.122 7.45266C53.1812 7.40168 53.2566 7.37371 53.3345 7.37381H53.6061C54.3148 7.37381 54.9844 7.37381 55.3301 7.78055C55.5363 8.02321 55.5989 8.38372 55.5202 8.88174ZM66.8067 8.8361H64.927C64.8491 8.83589 64.7736 8.86381 64.7144 8.91481C64.6552 8.9658 64.6161 9.03648 64.6043 9.114L64.521 9.64322L64.3889 9.45141C63.9817 8.8569 63.0744 8.65815 62.1681 8.65815C60.0898 8.65815 58.3153 10.2418 57.9695 12.4632C57.7904 13.5714 58.0448 14.631 58.6696 15.3699C59.2439 16.0493 60.0628 16.3324 61.0385 16.3324C62.7131 16.3324 63.6418 15.2492 63.6418 15.2492L63.5579 15.7749C63.5504 15.822 63.5532 15.8702 63.566 15.9161C63.5789 15.962 63.6015 16.0046 63.6323 16.0408C63.6631 16.0771 63.7014 16.1062 63.7445 16.1261C63.7875 16.1461 63.8344 16.1563 63.8818 16.1562H65.5754C65.7054 16.1561 65.8311 16.1094 65.9299 16.0243C66.0286 15.9392 66.0939 15.8215 66.1141 15.6923L67.1311 9.21626C67.1383 9.16921 67.1353 9.12115 67.1223 9.07538C67.1093 9.0296 67.0866 8.9872 67.0558 8.95109C67.025 8.91497 66.9868 8.88599 66.9438 8.86614C66.9007 8.84629 66.854 8.83605 66.8067 8.8361ZM64.185 12.5187C64.0047 13.5997 63.1508 14.3253 62.0631 14.3253C61.5181 14.3253 61.0804 14.1491 60.8002 13.8152C60.5222 13.4835 60.4177 13.0115 60.505 12.4858C60.6756 11.414 61.5416 10.6647 62.6126 10.6647C63.1467 10.6647 63.5809 10.8432 63.8669 11.18C64.1546 11.5203 64.2683 11.9953 64.185 12.5187ZM69.024 5.45914L67.412 15.7766C67.4046 15.8236 67.4074 15.8716 67.4202 15.9173C67.433 15.963 67.4555 16.0054 67.4862 16.0416C67.5169 16.0777 67.555 16.1067 67.5979 16.1266C67.6408 16.1465 67.6875 16.1568 67.7347 16.1568H69.3553C69.6247 16.1568 69.8532 15.9604 69.8946 15.6929L71.4842 5.5614C71.4916 5.51444 71.4888 5.46643 71.476 5.42066C71.4631 5.3749 71.4406 5.33247 71.41 5.29629C71.3793 5.26011 71.3412 5.23105 71.2983 5.21109C71.2554 5.19113 71.2087 5.18075 71.1615 5.18066H69.3467C69.2688 5.18094 69.1935 5.20912 69.1344 5.26015C69.0753 5.31117 69.0361 5.38172 69.024 5.45914Z" fill="#179BD7"/>
<path id="Vector_3" d="M4.68844 18.1262L4.98879 16.2069L4.31975 16.1913H1.125L3.34519 2.02886C3.3518 1.98559 3.37365 1.94615 3.40675 1.91773C3.43985 1.8893 3.482 1.8738 3.52551 1.87403H8.91231C10.7006 1.87403 11.9348 2.24841 12.5791 2.98735C12.8812 3.33401 13.0736 3.69626 13.1666 4.09491C13.2643 4.5132 13.266 5.01295 13.1706 5.62248L13.1638 5.66697V6.05753L13.4658 6.2297C13.6964 6.34724 13.9037 6.50624 14.0774 6.69884C14.3359 6.99522 14.503 7.37192 14.5736 7.81852C14.6466 8.27783 14.6224 8.82439 14.503 9.44316C14.3652 10.155 14.1423 10.7749 13.8414 11.2821C13.5759 11.7366 13.2189 12.1302 12.7933 12.4376C12.3936 12.7231 11.9187 12.9397 11.3817 13.0784C10.8614 13.2147 10.2682 13.2835 9.61754 13.2835H9.19831C8.89853 13.2835 8.60737 13.3921 8.3788 13.5868C8.15056 13.7836 7.99915 14.0555 7.95153 14.3541L7.91995 14.5268L7.38931 17.9095L7.36519 18.0338C7.35887 18.073 7.34796 18.0927 7.33188 18.106C7.3163 18.1188 7.29687 18.1259 7.27675 18.1262H4.68844Z" fill="#253B80"/>
<g id="Group 17">
<path id="Vector_4" d="M13.7526 5.71191C13.7365 5.81533 13.7181 5.92106 13.6974 6.02968C12.987 9.69898 10.5567 10.9666 7.45265 10.9666H5.87222C5.49262 10.9666 5.17274 11.2439 5.11359 11.6206L4.30442 16.7834L4.07528 18.2468C4.06615 18.3049 4.06964 18.3642 4.08549 18.4208C4.10135 18.4774 4.12921 18.5298 4.16714 18.5745C4.20507 18.6192 4.25218 18.6551 4.30523 18.6797C4.35827 18.7043 4.41599 18.7171 4.47441 18.7171H7.2775C7.60943 18.7171 7.89141 18.4745 7.94367 18.1451L7.97123 18.0019L8.499 14.6324L8.53288 14.4475C8.58457 14.1171 8.86712 13.8744 9.19906 13.8744H9.61828C12.3341 13.8744 14.4601 12.7651 15.0815 9.55512C15.341 8.21416 15.2067 7.09448 14.5198 6.307C14.3021 6.0634 14.0421 5.86174 13.7526 5.71191Z" fill="#179BD7"/>
<path id="Vector_5" d="M13.0052 5.41395C12.7784 5.34794 12.5477 5.29642 12.3144 5.25969C11.8534 5.18842 11.3875 5.15423 10.9211 5.15743H6.699C6.53832 5.15731 6.38289 5.21502 6.26082 5.32013C6.13874 5.42525 6.05808 5.57083 6.0334 5.73056L5.13522 11.4538L5.10938 11.6207C5.13736 11.4386 5.22923 11.2725 5.36838 11.1525C5.50753 11.0325 5.68476 10.9666 5.86801 10.9667H7.44844C10.5525 10.9667 12.9828 9.69857 13.6932 6.02984C13.7145 5.92122 13.7323 5.81549 13.7484 5.71207C13.5609 5.61318 13.3655 5.53027 13.1643 5.46422C13.1116 5.44661 13.0585 5.42985 13.0052 5.41395Z" fill="#222D65"/>
<path id="Vector_6" d="M6.03676 5.73034C6.06122 5.57056 6.14185 5.42491 6.26398 5.31985C6.38612 5.21479 6.54166 5.15729 6.70235 5.15779H10.9245C11.4247 5.15779 11.8916 5.19072 12.3177 5.26005C12.6061 5.30564 12.8904 5.37383 13.1682 5.464C13.3779 5.53391 13.5725 5.61652 13.7523 5.71185C13.9636 4.35587 13.7506 3.43262 13.0218 2.59661C12.2184 1.67625 10.7683 1.28223 8.91278 1.28223H3.52598C3.14695 1.28223 2.82363 1.55955 2.76505 1.93682L0.521316 16.2449C0.510865 16.3113 0.514841 16.3792 0.532971 16.4439C0.551101 16.5087 0.582954 16.5687 0.62634 16.6199C0.669725 16.671 0.723613 16.7121 0.784297 16.7404C0.844981 16.7686 0.911021 16.7832 0.977873 16.7833H4.30356L5.13857 11.4536L6.03676 5.73034Z" fill="#253B80"/>
</g>
</g>
<defs>
<clipPath id="clip0_4541_28632">
<rect width="71" height="19" fill="white" transform="translate(0.5 0.5)"/>
</clipPath>
</defs>
</svg>
