<svg width="20" height="20" viewBox="0 0 20 20" fill="none" xmlns="http://www.w3.org/2000/svg">
<g clip-path="url(#clip0_3686_17324)">
<path d="M19.8166 7.20416L15.2216 2.60916C15.1053 2.49291 14.9484 2.42728 14.7847 2.42603L5.29781 2.35353C5.13031 2.35228 4.96969 2.41791 4.85094 2.53666L0.182812 7.20478C-0.0609375 7.44916 -0.0609375 7.84416 0.182812 8.08853L9.55781 17.4635C9.80219 17.7079 10.1978 17.7079 10.4416 17.4635L19.8166 8.08853C20.0609 7.84416 20.0609 7.44853 19.8166 7.20416ZM16.1916 8.09291L11.7216 12.6073C11.4784 12.8529 11.0828 12.8548 10.8372 12.6117C10.5916 12.3685 10.5897 11.9729 10.8328 11.7273L14.8797 7.64166L13.5122 6.18416C13.2728 5.93603 13.2803 5.53978 13.5291 5.30041C13.6503 5.18291 13.8141 5.12103 13.9822 5.12603C14.1509 5.13103 14.3103 5.20416 14.4241 5.32853L16.2041 7.22666C16.4328 7.47166 16.4278 7.85416 16.1916 8.09291Z" fill="white"/>
</g>
<defs>
<clipPath id="clip0_3686_17324">
<rect width="20" height="20" fill="white"/>
</clipPath>
</defs>
</svg>
