<svg width="107" height="107" viewBox="0 0 107 107" fill="none" xmlns="http://www.w3.org/2000/svg">
<g clip-path="url(#clip0_2698_32268)">
<path d="M39.6874 35.9648L45.8345 42.1059C46.9672 43.3731 48.6142 44.0956 50.3652 44.0956C52.1163 44.0956 53.7633 43.3731 54.7735 42.2344L67.2514 29.7565C69.843 27.2951 69.7412 23.1752 67.3738 20.9399C64.9245 18.361 60.8243 18.4202 58.5023 20.8726L50.3531 28.9666L48.5653 27.2094C46.1038 24.6178 41.9839 24.7196 39.7486 27.087C37.176 29.5304 37.221 33.6288 39.6874 35.9648ZM93.5203 76.3835C92.5473 75.3594 82.5267 70.9896 78.2383 70.106L106.373 39.08C105.809 38.3272 104.931 37.8261 103.865 37.8261H73.3115C72.1203 37.8261 70.9918 38.5157 70.4904 39.644C67.3559 46.1641 60.7102 50.3651 53.5 50.3651C46.2898 50.3651 39.6441 46.1641 36.5094 39.644C36.008 38.5157 34.8797 37.8261 33.6883 37.8261H3.13477C2.06915 37.8261 1.19121 38.3272 0.626744 39.08L28.1878 69.4734C23.6414 68.92 14.4114 69.1334 13.4797 70.1139L0 96.1327V97.3866C0 99.1419 1.37909 100.521 3.13477 100.521H4.38867L30.616 87.0417C31.5694 86.1361 31.7976 77.5139 31.3015 72.907L53.5 97.3866L75.6983 72.907C75.2022 77.5137 75.4306 86.1361 76.3838 87.0417L102.611 100.521H103.865C105.621 100.521 107 99.1419 107 97.3866V96.1327L93.5203 76.3835Z" fill="#FFE2FE"/>
<path d="M87.2508 76.3836L107 96.1328V40.9609C107 40.2713 106.749 39.5814 106.373 39.0801L53.5 78.5781L0.626744 39.0801C0.250572 39.5814 0 40.2713 0 40.9609V96.1328L19.7492 76.3838C20.9404 75.1301 22.9463 75.1301 24.1377 76.3838C25.3916 77.575 25.3916 79.5813 24.1377 80.7725L4.38867 100.521H102.611L82.8625 80.7722C81.6086 79.581 81.6086 77.5748 82.8625 76.3836C84.0537 75.1299 86.0596 75.1299 87.2508 76.3836ZM53.5 56.6348C67.3559 56.6348 78.5781 45.4121 78.5781 31.5566C78.5781 17.7008 67.3559 6.47852 53.5 6.47852C39.6441 6.47852 28.2129 17.7008 28.2129 31.5566C28.2129 45.4121 39.6441 56.6348 53.5 56.6348ZM41.9016 29.3621C43.0928 28.1084 45.0986 28.1084 46.29 29.3621L50.3654 33.3746L60.7104 23.0926C61.9016 21.8389 63.9074 21.8389 65.0988 23.0926C66.3528 24.2838 66.3528 26.29 65.0988 27.4812L52.5598 40.0203C51.9953 40.6475 51.1803 40.9609 50.3652 40.9609C49.5502 40.9609 48.7352 40.6475 48.1711 40.0203L41.9016 33.7508C40.6475 32.5596 40.6475 30.5533 41.9016 29.3621Z" fill="url(#paint0_linear_2698_32268)"/>
</g>
<defs>
<linearGradient id="paint0_linear_2698_32268" x1="123.021" y1="-2.33797" x2="-5.85318" y2="2.3236" gradientUnits="userSpaceOnUse">
<stop stop-color="#FC768A"/>
<stop offset="1" stop-color="#E65073"/>
</linearGradient>
<clipPath id="clip0_2698_32268">
<rect width="107" height="107" fill="white"/>
</clipPath>
</defs>
</svg>
